<svg xmlns="http://www.w3.org/2000/svg" width="110" height="37" fill="none" viewBox="0 0 110 37"><path d="M2.791 36.5v-3.06L1.558 30.2h.837l.819 2.151.81-2.151h.837l-1.233 3.24v3.06h-.837Zm4.05 0a.636.636 0 0 1-.468-.189.655.655 0 0 1-.189-.468v-3.186c0-.18.063-.333.189-.459A.621.621 0 0 1 6.841 32h1.224a.61.61 0 0 1 .459.198.625.625 0 0 1 .189.459v3.186c0 .18-.063.336-.189.468a.625.625 0 0 1-.459.189H6.84Zm.513-.846h.189c.09 0 .168-.03.234-.09a.32.32 0 0 0 .099-.234v-2.16a.291.291 0 0 0-.1-.225.32.32 0 0 0-.233-.099h-.189a.32.32 0 0 0-.234.099.305.305 0 0 0-.09.225v2.16c0 .09.03.168.09.234.066.06.144.09.234.09Zm4.158.846a.636.636 0 0 1-.468-.189.636.636 0 0 1-.189-.468V32h.846v3.33a.31.31 0 0 0 .1.225.31.31 0 0 0 .224.099h.522V32h.846v4.5h-1.88Zm4.104 0V32h1.88a.61.61 0 0 1 .46.198.61.61 0 0 1 .198.459v.981l-.846-.189v-.27a.32.32 0 0 0-.1-.234.291.291 0 0 0-.224-.099h-.522V36.5h-.846Zm10.099 2.25V32h1.88c.187 0 .343.063.469.189a.636.636 0 0 1 .189.468v3.186a.636.636 0 0 1-.19.468.636.636 0 0 1-.467.189H26.56v2.25h-.846Zm.846-3.096h.521a.31.31 0 0 0 .226-.099.31.31 0 0 0 .099-.225v-2.151a.325.325 0 0 0-.324-.333h-.522v2.808Zm4.395.846a.655.655 0 0 1-.468-.189.655.655 0 0 1-.189-.468v-3.195c0-.18.064-.333.19-.459a.655.655 0 0 1 .467-.189h1.225c.186 0 .342.063.468.189a.625.625 0 0 1 .188.459v1.368c0 .18-.063.336-.189.468a.636.636 0 0 1-.468.189h-1.035v.657c0 .09.03.168.09.234.067.06.148.09.244.09h1.17l.188.846h-1.88Zm.19-2.673h.521c.09 0 .165-.03.225-.09a.32.32 0 0 0 .1-.234v-.333a.291.291 0 0 0-.1-.225.291.291 0 0 0-.224-.099h-.19a.33.33 0 0 0-.243.099.305.305 0 0 0-.09.225v.657Zm3.642 2.673V32h1.88a.61.61 0 0 1 .46.198.61.61 0 0 1 .198.459v.981l-.846-.189v-.27a.32.32 0 0 0-.1-.234.291.291 0 0 0-.224-.099h-.522V36.5h-.846Zm5.136 0a.625.625 0 0 1-.459-.189.655.655 0 0 1-.189-.468v-.747h.837v.234c0 .09.033.168.099.234.066.06.144.09.234.09h.189c.09 0 .165-.03.225-.09a.32.32 0 0 0 .099-.234v-.333a.291.291 0 0 0-.099-.225.291.291 0 0 0-.225-.099h-.711a.625.625 0 0 1-.459-.189.655.655 0 0 1-.189-.468v-1.359c0-.18.063-.333.189-.459a.61.61 0 0 1 .459-.198h1.233a.61.61 0 0 1 .459.198.625.625 0 0 1 .189.459v.747h-.846v-.234a.291.291 0 0 0-.099-.225.291.291 0 0 0-.225-.099h-.189a.32.32 0 0 0-.234.099.291.291 0 0 0-.099.225v.333c0 .09.033.168.099.234.066.06.144.09.234.09h.711a.61.61 0 0 1 .459.198.625.625 0 0 1 .189.459v1.395a.639.639 0 0 1-.198.441.63.63 0 0 1-.45.18h-1.233Zm4.657 0a.636.636 0 0 1-.468-.189.655.655 0 0 1-.189-.468v-3.186c0-.18.063-.333.19-.459A.621.621 0 0 1 44.58 32h1.224a.61.61 0 0 1 .46.198.625.625 0 0 1 .188.459v3.186c0 .18-.063.336-.189.468a.625.625 0 0 1-.459.189h-1.224Zm.513-.846h.19c.09 0 .167-.03.233-.09a.32.32 0 0 0 .1-.234v-2.16a.291.291 0 0 0-.1-.225.32.32 0 0 0-.234-.099h-.189a.32.32 0 0 0-.234.099.305.305 0 0 0-.09.225v2.16c0 .09.03.168.09.234.066.06.144.09.234.09Zm3.443.846V32h1.88c.175 0 .328.063.46.189a.61.61 0 0 1 .198.459V36.5h-.846v-3.33a.302.302 0 0 0-.1-.234.325.325 0 0 0-.224-.09h-.522V36.5h-.846Zm5.177 0a.655.655 0 0 1-.468-.189.636.636 0 0 1-.189-.468v-1.359c0-.18.063-.333.19-.459a.64.64 0 0 1 .467-.198h.702c.096 0 .174-.03.234-.09a.32.32 0 0 0 .1-.234v-.333a.291.291 0 0 0-.1-.225.302.302 0 0 0-.234-.099h-.972l.19-.846h1.304a.61.61 0 0 1 .46.198.61.61 0 0 1 .197.459V36.5h-1.88Zm.513-.846h.522v-.981h-.522a.32.32 0 0 0-.234.099.305.305 0 0 0-.09.225v.333c0 .09.03.168.09.234.066.06.144.09.234.09Zm3.503.846v-6.543l.846-.189V36.5h-.846Zm3.263 0v-6.3h.837v6.3h-.837Zm3.165 0 1.368-3.654h-1.368V32h2.538l-1.386 3.654h1.386v.846h-2.538Zm5.242 0a.655.655 0 0 1-.468-.189.655.655 0 0 1-.19-.468v-3.195c0-.18.064-.333.19-.459A.655.655 0 0 1 69.4 32h1.224c.186 0 .342.063.468.189a.625.625 0 0 1 .189.459v1.368c0 .18-.063.336-.19.468a.636.636 0 0 1-.467.189h-1.035v.657c0 .09.03.168.09.234.066.06.147.09.243.09h1.17l.189.846H69.4Zm.189-2.673h.522c.09 0 .165-.03.225-.09a.32.32 0 0 0 .099-.234v-.333a.291.291 0 0 0-.1-.225.291.291 0 0 0-.224-.099h-.19a.33.33 0 0 0-.242.099.305.305 0 0 0-.09.225v.657Zm4.396 2.673a.636.636 0 0 1-.468-.189.636.636 0 0 1-.19-.468v-3.186c0-.186.064-.342.19-.468a.636.636 0 0 1 .468-.189h1.035v-2.052l.846-.198v6.75h-1.881Zm.513-.846h.522v-2.808h-.522a.325.325 0 0 0-.225.09.302.302 0 0 0-.1.234v2.16a.31.31 0 0 0 .1.225.31.31 0 0 0 .225.099Zm9.673.846a.636.636 0 0 1-.468-.189.655.655 0 0 1-.189-.468v-3.186c0-.18.063-.333.19-.459A.621.621 0 0 1 84.17 32h1.224a.61.61 0 0 1 .46.198.61.61 0 0 1 .197.459v.981h-.846v-.468a.291.291 0 0 0-.099-.225.32.32 0 0 0-.234-.099h-.189a.32.32 0 0 0-.234.099.305.305 0 0 0-.09.225v2.16c0 .09.03.168.09.234.066.06.144.09.234.09h.19c.09 0 .167-.03.233-.09a.32.32 0 0 0 .1-.234v-.468h.845v.981a.64.64 0 0 1-.198.468.625.625 0 0 1-.459.189h-1.224Zm4.56 0a.636.636 0 0 1-.467-.189.655.655 0 0 1-.19-.468v-3.186c0-.18.064-.333.19-.459a.621.621 0 0 1 .468-.198h1.224a.61.61 0 0 1 .459.198.625.625 0 0 1 .189.459v3.186c0 .18-.063.336-.19.468a.625.625 0 0 1-.458.189h-1.224Zm.514-.846h.189c.09 0 .168-.03.234-.09a.32.32 0 0 0 .099-.234v-2.16a.291.291 0 0 0-.1-.225.32.32 0 0 0-.233-.099h-.19a.32.32 0 0 0-.233.099.305.305 0 0 0-.09.225v2.16c0 .09.03.168.09.234.066.06.144.09.234.09Zm3.413.846v-6.084c0-.18.063-.333.189-.459a.615.615 0 0 1 .45-.189h1.233c.18 0 .333.063.459.189a.625.625 0 0 1 .189.459v.972l-.837-.18v-.279a.282.282 0 0 0-.1-.216.291.291 0 0 0-.224-.099h-.198a.32.32 0 0 0-.234.099.295.295 0 0 0-.09.216v1.08h1.062l-.19.846h-.872V36.5h-.837Zm4.383 0v-6.084c0-.18.063-.333.189-.459a.615.615 0 0 1 .45-.189h1.233c.18 0 .333.063.459.189a.625.625 0 0 1 .189.459v.972l-.837-.18v-.279a.282.282 0 0 0-.1-.216.291.291 0 0 0-.224-.099h-.198a.32.32 0 0 0-.234.099.295.295 0 0 0-.09.216v1.08h1.062l-.19.846h-.872V36.5h-.837Zm4.319 0a.655.655 0 0 1-.468-.189.655.655 0 0 1-.189-.468v-3.195c0-.18.063-.333.189-.459a.655.655 0 0 1 .468-.189h1.224c.186 0 .342.063.468.189a.625.625 0 0 1 .189.459v1.368c0 .18-.063.336-.189.468a.636.636 0 0 1-.468.189h-1.035v.657c0 .09.03.168.09.234.066.06.147.09.243.09h1.17l.189.846h-1.881Zm.189-2.673h.522c.09 0 .165-.03.225-.09a.32.32 0 0 0 .099-.234v-.333a.291.291 0 0 0-.099-.225.291.291 0 0 0-.225-.099h-.189a.33.33 0 0 0-.243.099.305.305 0 0 0-.09.225v.657Zm4.299 2.673a.655.655 0 0 1-.468-.189.655.655 0 0 1-.189-.468v-3.195c0-.18.063-.333.189-.459a.655.655 0 0 1 .468-.189h1.224c.186 0 .342.063.468.189a.625.625 0 0 1 .189.459v1.368c0 .18-.063.336-.189.468a.636.636 0 0 1-.468.189h-1.035v.657c0 .09.03.168.09.234.066.06.147.09.243.09h1.17l.189.846h-1.881Zm.189-2.673h.522c.09 0 .165-.03.225-.09a.32.32 0 0 0 .099-.234v-.333a.291.291 0 0 0-.099-.225.291.291 0 0 0-.225-.099h-.189a.33.33 0 0 0-.243.099.305.305 0 0 0-.09.225v.657Z" fill="currentColor"></path><path d="M2 24V7.008m0-3.883v3.883m0 0c1.078-1.618 4.788-4.66 11-3.883M27 15C25.5 3.5 37.5.5 43 4L27 15Zm0 0c.323 2.48 1.7 7.3 8.5 8.5" stroke="currentColor" stroke-width="2.5" stroke-linecap="round" stroke-linejoin="round" ></path><path d="m58 2 7.31 21.445a.2.2 0 0 0 .38 0L73 2" stroke="currentColor" stroke-width="2.5" stroke-linecap="round"></path><path d="M96.2 2.401c5.719-1.751 9.652 2.641 11 5.337 1.5 3.167 2.9 10.5-3.5 14.5-1.213.758-2.385 1.169-3.5 1.314m-4-21.151c-.645.197-1.312.473-2 .837-6.8 3.6-5.5 10.834-4 14 1.486 2.702 5.227 6.937 10 6.314m-4-21.151c-1.167 1.612-2.2 5.937 3 10.337 5.2 4.4 2.833 9.043 1 10.814" stroke="currentColor" stroke-width="2.5"></path></svg>